<svg xmlns="http://www.w3.org/2000/svg" width="435" height="573" viewBox="0 0 435 573" version="1.1"><path d="M 204.250 133.689 C 205.213 133.941, 206.787 133.941, 207.750 133.689 C 208.713 133.438, 207.925 133.232, 206 133.232 C 204.075 133.232, 203.287 133.438, 204.250 133.689 M 224.250 133.689 C 225.213 133.941, 226.787 133.941, 227.750 133.689 C 228.713 133.438, 227.925 133.232, 226 133.232 C 224.075 133.232, 223.287 133.438, 224.250 133.689 M 215.521 168.976 C 214.538 170.063, 213.273 170.669, 212.712 170.322 C 212.105 169.947, 211.999 170.189, 212.451 170.921 C 213.010 171.825, 213.845 171.555, 215.605 169.901 C 216.922 168.664, 218 167.505, 218 167.326 C 218 166.585, 217.209 167.111, 215.521 168.976 M 177.924 180.750 L 175.500 183.500 178.250 181.076 C 179.762 179.742, 181 178.505, 181 178.326 C 181 177.541, 180.190 178.180, 177.924 180.750 M 209.924 180.750 L 207.500 183.500 210.250 181.076 C 211.762 179.742, 213 178.505, 213 178.326 C 213 177.541, 212.190 178.180, 209.924 180.750 M 233.924 188.750 L 231.500 191.500 234.250 189.076 C 235.762 187.742, 237 186.505, 237 186.326 C 237 185.541, 236.190 186.180, 233.924 188.750 M 215.503 200.996 C 214.125 202.520, 213.377 202.728, 212.348 201.874 C 211.607 201.259, 211 200.980, 211 201.255 C 211 201.530, 211.602 202.255, 212.337 202.865 C 213.360 203.714, 214.225 203.389, 216.012 201.488 C 217.297 200.119, 218.115 199, 217.829 199 C 217.544 199, 216.497 199.898, 215.503 200.996 M 178 216.500 C 179.292 217.875, 180.574 219, 180.849 219 C 181.124 219, 180.292 217.875, 179 216.500 C 177.708 215.125, 176.426 214, 176.151 214 C 175.876 214, 176.708 215.125, 178 216.500 M 325.936 217.569 L 323.525 220.134 325.874 224.317 C 333.694 238.244, 336.336 245.894, 338.003 259.436 C 339.218 269.310, 338.153 282.190, 335.311 292 C 333.626 297.814, 328.350 309.589, 325.311 314.319 C 323.505 317.130, 323.508 317.144, 326.421 319.668 L 329.342 322.198 331.201 319.849 C 334.778 315.330, 341.922 299.427, 344.160 291 C 347.301 279.174, 347.306 258.207, 344.169 246.500 C 341.830 237.767, 333.267 219.456, 330.241 216.718 C 328.438 215.087, 328.228 215.128, 325.936 217.569 M 97.859 220.252 C 88.248 235.714, 83.982 250.845, 84.022 269.338 C 84.058 286.232, 89.550 305.218, 97.921 317.385 L 101.091 321.993 104.045 319.808 C 107.234 317.451, 107.722 315.844, 105.747 314.205 C 104.197 312.919, 98.738 302.061, 96.594 296 C 88.781 273.915, 91.235 247.756, 103.010 227.607 C 105.204 223.851, 107 220.430, 107 220.004 C 107 219.141, 102.513 215.999, 101.285 216.002 C 100.853 216.003, 99.312 217.915, 97.859 220.252 M 212.399 226.250 C 212.003 226.938, 212.052 227.162, 212.509 226.748 C 212.965 226.334, 214.274 226.784, 215.419 227.748 C 217.498 229.499, 217.498 229.498, 215.595 227.250 C 213.372 224.625, 213.340 224.615, 212.399 226.250 M 111.032 234.444 C 109.319 237.438, 106.731 243.176, 105.282 247.194 C 102.946 253.668, 102.637 256.038, 102.573 268 C 102.511 279.393, 102.855 282.630, 104.776 288.741 C 107.027 295.902, 113.370 308, 114.874 308 C 115.301 308, 116.668 306.918, 117.910 305.596 L 120.168 303.193 116.545 295.661 C 107.961 277.813, 107.961 259.187, 116.545 241.339 L 120.168 233.807 117.910 231.404 C 116.668 230.082, 115.313 229, 114.899 229 C 114.485 229, 112.745 231.450, 111.032 234.444 M 312.723 231.556 L 310.055 234.030 313.456 240.265 C 318.145 248.860, 320 256.916, 320 268.684 C 320 279.934, 318.378 287.328, 314.011 295.978 C 312.355 299.259, 311 302.531, 311 303.249 C 311 305.053, 314.915 308.247, 316.419 307.669 C 318.095 307.026, 324.418 293.840, 326.511 286.626 C 328.946 278.229, 328.779 258.764, 326.198 250 C 324.083 242.823, 318.937 232.023, 316.778 230.231 C 315.695 229.332, 314.809 229.622, 312.723 231.556 M 126.271 245.265 C 121.765 252.902, 120.499 258.139, 120.532 269 C 120.565 279.970, 122.653 287.880, 126.899 293.124 C 128.673 295.315, 128.704 295.317, 131.312 293.415 C 134.278 291.251, 134.633 289.349, 132.609 286.459 C 130.359 283.247, 128 274.040, 128 268.474 C 128 263.752, 129.547 257.934, 133.129 249.187 C 134.408 246.065, 134.342 245.765, 131.993 243.960 C 128.695 241.426, 128.512 241.468, 126.271 245.265 M 298.752 244.255 L 296.003 246.500 298.752 252 C 301.250 256.999, 301.500 258.502, 301.500 268.505 C 301.500 278.466, 301.242 280.030, 298.782 285 L 296.063 290.491 298.687 292.745 C 300.130 293.985, 301.715 295, 302.208 295 C 303.956 295, 308.943 282.395, 310.053 275.172 C 311.482 265.867, 310.102 256.910, 305.904 248.250 C 304.238 244.813, 302.565 242.002, 302.187 242.005 C 301.809 242.008, 300.263 243.020, 298.752 244.255 M 227.250 247.689 C 228.213 247.941, 229.787 247.941, 230.750 247.689 C 231.713 247.438, 230.925 247.232, 229 247.232 C 227.075 247.232, 226.287 247.438, 227.250 247.689 M 139.336 268 C 139.336 272.125, 139.513 273.813, 139.728 271.750 C 139.944 269.688, 139.944 266.313, 139.728 264.250 C 139.513 262.188, 139.336 263.875, 139.336 268 M 219.269 262.693 C 220.242 262.947, 221.592 262.930, 222.269 262.656 C 222.946 262.382, 222.150 262.175, 220.500 262.195 C 218.850 262.215, 218.296 262.439, 219.269 262.693 M 322.664 332.479 C 318.870 336.272, 321.473 342.433, 329.249 348.066 L 333.184 350.916 330.342 351.615 C 325.647 352.771, 315.543 362.325, 313.968 367.098 C 312.709 370.911, 312.769 371.544, 314.700 374.901 C 315.857 376.910, 317.339 380.566, 317.993 383.027 C 318.648 385.487, 320.326 389.008, 321.721 390.852 C 323.116 392.695, 324.875 396.257, 325.630 398.767 C 327.548 405.139, 330.952 410.532, 337.374 417.371 C 342.011 422.311, 343.016 424.056, 343.702 428.371 C 344.368 432.552, 344.887 433.500, 346.509 433.500 C 348.241 433.500, 348.479 432.880, 348.337 428.736 C 348.144 423.115, 344.676 416.590, 340.086 413.211 C 336.240 410.381, 332.828 405.060, 330.652 398.500 C 329.740 395.750, 327.647 391.475, 326.001 389 C 324.355 386.525, 323.007 383.881, 323.004 383.125 C 323.002 382.369, 321.809 379.097, 320.354 375.854 C 318.899 372.612, 317.984 369.682, 318.322 369.345 C 318.660 369.007, 320.242 369.272, 321.839 369.933 C 323.762 370.730, 325.881 373.168, 328.121 377.163 C 333.908 387.486, 336.786 389.706, 343.500 389.028 C 348.139 388.560, 352.978 380.999, 352.994 374.194 C 352.997 372.926, 351.365 368.123, 349.366 363.521 C 346.214 356.264, 344.935 354.512, 339.734 350.326 C 328.779 341.511, 326 338.785, 326 336.854 C 326 334.977, 326.054 334.977, 328.750 336.819 C 330.262 337.852, 335.784 341.227, 341.019 344.320 C 349.527 349.345, 351.003 350.662, 354.920 356.721 C 357.330 360.449, 361.114 365.950, 363.330 368.944 L 367.358 374.388 366.179 384.990 C 364.620 399.007, 364.741 413.119, 366.483 420.412 C 368.060 427.016, 370.282 430.118, 372.119 428.281 C 372.963 427.437, 372.788 425.280, 371.433 419.824 C 369.422 411.722, 369.212 395.583, 370.978 384.706 C 372.779 373.604, 372.391 370.451, 368.704 366.253 C 364.991 362.025, 362.652 358.547, 359.118 352 C 356.435 347.029, 354.718 345.433, 351.038 344.488 C 349.684 344.140, 346.624 342.538, 344.238 340.928 C 341.852 339.317, 339.666 338, 339.380 338 C 339.094 338, 336.888 336.643, 334.477 334.984 C 328.856 331.117, 324.871 330.272, 322.664 332.479 M 279.200 340.200 C 278.540 340.860, 277.990 341.873, 277.978 342.450 C 277.966 343.027, 277.156 344.539, 276.179 345.809 L 274.402 348.119 273.017 345.533 C 271.466 342.634, 267.494 341.199, 265.137 342.685 C 262.836 344.137, 262.191 347.834, 261.159 365.500 C 260.334 379.603, 259.901 382.212, 257.507 387.500 C 254.903 393.255, 254.776 394.308, 254.413 413.273 C 254.123 428.472, 253.595 434.764, 252.133 440.472 C 250.136 448.268, 250.221 449, 253.128 449 C 256.687 449, 259.065 435.065, 259.113 413.938 C 259.133 404.829, 259.453 396.912, 259.825 396.345 C 261.089 394.413, 276.308 384.888, 278.986 384.353 C 281.913 383.767, 304 390.627, 304 392.121 C 304 393.253, 296.830 393.262, 293.815 392.134 C 292.542 391.658, 289.021 390.964, 285.992 390.592 C 280.627 389.934, 280.335 390.028, 274.790 394.208 C 270.938 397.112, 269.081 399.218, 269.048 400.721 C 269.022 401.943, 270.388 406.668, 272.084 411.221 C 274.035 416.458, 275.248 421.703, 275.383 425.496 C 275.552 430.223, 275.955 431.560, 277.288 431.817 C 278.324 432.016, 279.431 431.148, 280.149 429.573 C 281.481 426.649, 280.161 419.072, 276.849 410.635 L 274.939 405.771 278.046 408.385 C 280.219 410.213, 282.311 411, 285.001 411 C 289.051 411, 290.296 409.916, 295.345 402 C 297.160 399.153, 298.363 398.394, 301.789 397.933 C 305.897 397.379, 305.965 397.416, 304.511 399.433 C 299.829 405.930, 295.526 414.362, 293.279 421.445 C 290.993 428.651, 290.069 430.133, 284.516 435.500 C 275.867 443.860, 272.306 452.500, 277.509 452.500 C 278.937 452.500, 279.856 451.382, 280.797 448.500 C 281.643 445.907, 284.291 442.389, 288.324 438.500 C 293.789 433.230, 294.836 431.587, 296.927 425 C 299.857 415.767, 302.147 411.079, 307.149 404.071 C 310.459 399.432, 310.936 398.122, 310.424 395.071 C 309.443 389.222, 309.017 388.242, 307.217 387.689 C 306.273 387.399, 300.156 385.326, 293.624 383.081 C 287.093 380.837, 280.953 379, 279.980 379 C 278.498 379, 278.330 378.469, 278.949 375.726 C 279.355 373.926, 280.154 371.564, 280.725 370.476 C 281.297 369.389, 283.417 364.065, 285.438 358.644 C 289.436 347.919, 289.492 344.468, 285.722 340.956 C 283.331 338.728, 280.948 338.452, 279.200 340.200 M 281.157 346.034 C 280.630 347.390, 277.849 353.449, 274.977 359.497 C 268.824 372.457, 262.802 387.135, 263.395 387.729 C 263.626 387.959, 265.745 386.748, 268.106 385.038 C 271.811 382.355, 272.619 381.080, 274.023 375.715 C 274.917 372.297, 276.151 368.600, 276.765 367.500 C 278.711 364.015, 284.001 349.822, 283.985 348.127 C 283.976 347.232, 283.552 345.840, 283.042 345.034 C 282.289 343.843, 281.935 344.031, 281.157 346.034 M 266.642 353.147 C 266.289 356.527, 266.026 361.140, 266.058 363.397 L 266.115 367.500 268.444 362.380 C 270.632 357.568, 270.761 355.832, 269.420 349.250 C 268.580 345.124, 267.292 346.930, 266.642 353.147 M 332.423 355.850 C 331.280 356.207, 328.130 358.454, 325.423 360.843 L 320.500 365.187 325.312 364.709 C 328.270 364.416, 330.968 363.440, 332.312 362.177 C 334.088 360.510, 335.322 360.233, 338.864 360.708 C 343.071 361.273, 343.187 361.218, 342.091 359.170 C 340.138 355.522, 336.959 354.430, 332.423 355.850 M 296.339 357.559 C 295.964 358.537, 296.961 360.306, 299.018 362.309 C 302.616 365.812, 305 370.609, 305 374.345 C 305 377.036, 307.350 379.520, 308.956 378.527 C 312.028 376.629, 308.896 366.240, 303.508 360.454 C 299.119 355.741, 297.316 355.013, 296.339 357.559 M 293.003 363.496 C 291.975 364.735, 292.384 365.683, 295.380 368.999 C 297.371 371.203, 299 373.904, 299 375.003 C 299 377.095, 302.342 377.873, 303.473 376.044 C 304.360 374.609, 301.250 367.872, 298.260 364.750 C 295.224 361.580, 294.698 361.455, 293.003 363.496 M 332.946 367.289 L 329.393 369.305 332.780 375.685 C 339.011 387.419, 344.885 387.861, 348.048 376.834 C 349.215 372.762, 346.758 367.195, 343.494 366.518 C 337.565 365.287, 336.312 365.379, 332.946 367.289 M 287.324 368.597 C 286.935 369.612, 287.664 370.979, 289.324 372.347 C 290.761 373.531, 292.390 375.738, 292.944 377.250 C 294.013 380.170, 296.701 380.943, 297.604 378.590 C 298.351 376.644, 295.582 371.603, 292.385 369.088 C 289.200 366.583, 288.137 366.479, 287.324 368.597 M 199.250 395.689 C 200.213 395.941, 201.787 395.941, 202.750 395.689 C 203.713 395.438, 202.925 395.232, 201 395.232 C 199.075 395.232, 198.287 395.438, 199.250 395.689 M 225.250 395.716 C 226.762 395.945, 229.238 395.945, 230.750 395.716 C 232.262 395.487, 231.025 395.300, 228 395.300 C 224.975 395.300, 223.738 395.487, 225.250 395.716 M 279.750 396.055 C 275.170 398.788, 281.284 408.363, 286.365 406.414 C 287.009 406.166, 288.741 403.970, 290.213 401.532 C 292.587 397.603, 292.698 397.046, 291.195 396.623 C 286.783 395.382, 281.332 395.111, 279.750 396.055 M 212.250 444.728 C 214.313 444.944, 217.688 444.944, 219.750 444.728 C 221.813 444.513, 220.125 444.336, 216 444.336 C 211.875 444.336, 210.188 444.513, 212.250 444.728" stroke="none" fill="#1acbb9" fill-rule="evenodd"/><path d="M 193.500 127.446 C 157.214 132.420, 122.736 149.810, 97.924 175.651 C 77.531 196.892, 65 218.631, 56.897 246.829 C 49.792 271.554, 49.792 306.446, 56.897 331.171 C 65.043 359.520, 78.412 382.357, 98.864 402.862 C 126.866 430.937, 158.840 446.040, 201 451.105 C 213.972 452.664, 237.697 451.584, 240.197 449.321 C 242.340 447.382, 242.393 446.920, 240.733 444.649 C 239.569 443.058, 238.499 443.010, 227.681 444.067 C 194.805 447.277, 155.947 436.725, 126.512 416.595 C 109.607 405.033, 88.130 381.769, 79.341 365.497 C 73.812 355.262, 72.271 352.088, 70.118 346.500 C 68.846 343.200, 67.402 339.600, 66.910 338.500 C 65.036 334.313, 61.035 317.151, 60.039 309.026 C 57.840 291.096, 59.067 268.527, 63.103 252.638 C 66.315 239.992, 68.127 235.012, 74.249 222 C 83.673 201.969, 100.972 180.345, 118 167.308 C 128.421 159.329, 146.818 148, 149.354 148 C 150.039 148, 151.060 147.540, 151.622 146.978 C 152.184 146.416, 156.661 144.577, 161.572 142.891 C 199.622 129.826, 231.794 129.763, 269.500 142.679 C 275 144.563, 279.927 146.531, 280.450 147.052 C 280.972 147.573, 281.961 148, 282.646 148 C 285.201 148, 303.269 159.164, 314 167.374 C 325.900 176.478, 337.448 189.046, 347.742 204.098 C 350.952 208.791, 359.553 225.088, 361.677 230.500 C 362.325 232.150, 363.573 235.268, 364.451 237.429 C 365.329 239.589, 367.450 247.014, 369.165 253.929 C 371.869 264.833, 372.347 268.801, 372.770 283.849 C 373.271 301.716, 372.191 314.458, 369.281 325 C 365.091 340.176, 365.111 343, 369.408 343 C 371.643 343, 372.135 342.165, 374.562 334.250 C 379.298 318.802, 380.876 306.467, 380.544 287.500 C 380.095 261.857, 374.882 239.473, 364.505 218.625 C 358.598 206.759, 356.795 203.808, 349.022 193.277 C 325.984 162.065, 295.802 141.738, 256 130.627 C 240.801 126.384, 211.955 124.916, 193.500 127.446 M 190.500 157.142 C 184.358 159.158, 179.408 161.987, 176.407 165.196 C 166.841 175.425, 166 179.699, 166 218.062 C 166 242.985, 165.767 248, 164.607 248 C 162.722 248, 162 250.229, 162 256.047 C 162 259.680, 162.448 261.165, 163.750 261.850 C 165.908 262.984, 260.988 262.832, 262.750 261.691 C 263.523 261.191, 264 258.577, 264 254.847 C 264 249.738, 263.706 248.736, 262.080 248.311 C 260.245 247.831, 260.144 246.330, 259.781 214.154 C 259.413 181.472, 259.336 180.359, 257.092 175.609 C 254.361 169.827, 248.044 162.691, 243.639 160.412 C 236.696 156.819, 230.865 156.022, 212 156.091 C 201.825 156.128, 192.150 156.601, 190.500 157.142 M 194.628 164.631 C 192.787 167.157, 192.791 167.235, 194.853 169.298 L 196.951 171.395 199.481 169.018 L 202.011 166.641 199.831 164.320 C 197.135 161.450, 196.938 161.462, 194.628 164.631 M 211 164.500 L 208.600 167.055 211.100 169.555 L 213.600 172.055 216 169.500 L 218.400 166.945 215.900 164.445 L 213.400 161.945 211 164.500 M 226.655 163.829 C 224.495 166.216, 224.568 167.299, 227.038 169.534 C 229.028 171.335, 229.134 171.320, 231.557 168.898 L 234.037 166.417 231.980 164.209 C 229.480 161.526, 228.784 161.476, 226.655 163.829 M 182.250 167.944 C 179.707 170.065, 179.410 171, 181.278 171 C 182.455 171, 186 167.614, 186 166.489 C 186 165.508, 184.447 166.110, 182.250 167.944 M 241 166.822 C 241 167.807, 244.308 171, 245.329 171 C 246.845 171, 245.838 169.124, 243.500 167.592 C 242.125 166.691, 241 166.345, 241 166.822 M 186.113 172.379 L 183.878 174.759 186.503 176.824 C 189.393 179.097, 190.947 178.916, 192.706 176.099 C 193.652 174.585, 193.500 173.841, 191.896 172.118 C 189.400 169.440, 188.851 169.465, 186.113 172.379 M 203.250 171.986 C 200.502 174.227, 200.443 175.186, 202.917 177.425 C 204.397 178.765, 205.281 178.920, 206.799 178.107 C 209.783 176.511, 210.091 174.433, 207.678 172.182 C 205.558 170.205, 205.440 170.199, 203.250 171.986 M 218.655 171.829 C 216.500 174.210, 216.568 175.299, 219.010 177.509 C 220.962 179.276, 221.094 179.261, 223.516 176.985 L 226.011 174.641 223.831 172.320 C 221.203 169.523, 220.778 169.483, 218.655 171.829 M 234.678 172.216 L 231.886 174.250 234.117 176.625 C 236.830 179.513, 238.148 179.598, 240.466 177.037 C 242.458 174.836, 242.014 172.613, 239.292 171.156 C 237.936 170.430, 236.758 170.701, 234.678 172.216 M 178.169 180.320 L 175.989 182.641 178.484 184.985 C 180.951 187.302, 181.005 187.307, 183.240 185.425 C 184.483 184.378, 185.689 183.402, 185.921 183.257 C 186.463 182.916, 181.861 178, 181 178 C 180.642 178, 179.368 179.044, 178.169 180.320 M 195.039 180.189 C 192.520 182.892, 192.519 183.143, 195.011 185.278 C 197.527 187.431, 197.571 187.429, 200.027 184.973 C 201.983 183.017, 201.992 182.862, 200.277 180.505 C 198.078 177.482, 197.588 177.453, 195.039 180.189 M 210.113 180.379 L 207.878 182.759 210.601 184.901 L 213.325 187.043 215.668 184.842 L 218.011 182.641 215.831 180.320 C 213.128 177.443, 212.870 177.445, 210.113 180.379 M 228.485 178.796 C 227.943 179.183, 226.875 180.296, 226.112 181.269 C 224.911 182.800, 224.965 183.304, 226.517 185.019 C 228.876 187.625, 230.430 187.519, 232.329 184.621 C 233.782 182.403, 233.738 182.102, 231.678 180.167 C 230.463 179.026, 229.026 178.409, 228.485 178.796 M 242.366 180.565 C 240.762 183.012, 240.783 183.227, 242.818 185.262 L 244.951 187.395 247.419 185.076 C 249.737 182.898, 249.792 182.613, 248.329 180.379 C 246.317 177.308, 244.462 177.366, 242.366 180.565 M 172 189.941 C 172 194.925, 173.472 195.862, 176.378 192.726 L 178.654 190.270 176.436 188.135 C 173.184 185.005, 172 185.487, 172 189.941 M 187.015 188.484 C 184.739 190.906, 184.724 191.038, 186.491 192.990 C 188.876 195.625, 190.424 195.528, 192.329 192.621 C 193.784 190.400, 193.738 190.102, 191.623 188.116 L 189.359 185.989 187.015 188.484 M 202.405 188.267 L 200.310 190.500 202.628 192.950 L 204.945 195.400 207.478 193.020 L 210.011 190.641 207.831 188.320 C 205.168 185.486, 205.016 185.484, 202.405 188.267 M 218.885 188.184 L 216.270 190.189 218.500 192.594 C 221.219 195.528, 222.160 195.586, 224.534 192.962 C 226.335 190.972, 226.321 190.868, 223.939 188.552 L 221.500 186.180 218.885 188.184 M 234.292 188.250 L 232.235 190.500 234.590 192.950 L 236.945 195.400 239.478 193.020 L 242.011 190.641 239.831 188.320 C 237.142 185.458, 236.847 185.455, 234.292 188.250 M 251.250 187.989 C 248.482 190.242, 248.440 191.183, 251.006 193.506 C 253.594 195.848, 254.197 195.134, 253.813 190.183 L 253.500 186.158 251.250 187.989 M 178.977 196.525 L 176.605 199.049 178.816 201.261 C 180.531 202.975, 181.403 203.236, 182.697 202.419 C 185.945 200.371, 186.557 198.273, 184.553 196.059 C 182.185 193.442, 181.846 193.471, 178.977 196.525 M 194.655 195.829 C 192.500 198.210, 192.568 199.299, 195.010 201.509 C 196.962 203.276, 197.094 203.261, 199.516 200.985 L 202.011 198.641 199.831 196.320 C 197.203 193.523, 196.778 193.483, 194.655 195.829 M 211.225 195.555 C 208.392 197.540, 208.415 199.102, 211.320 201.831 L 213.641 204.011 216.020 201.478 L 218.400 198.945 215.925 196.471 C 213.615 194.161, 213.303 194.100, 211.225 195.555 M 226.655 195.829 C 224.500 198.210, 224.568 199.299, 227.010 201.509 C 228.962 203.275, 229.093 203.262, 231.454 201.043 C 233.737 198.898, 233.791 198.611, 232.329 196.379 C 230.460 193.526, 228.878 193.373, 226.655 195.829 M 242.992 196.239 C 240.657 198.745, 240.793 199.787, 243.711 201.724 C 245.583 202.967, 246.032 202.882, 247.840 200.941 C 249.494 199.166, 249.654 198.419, 248.706 196.901 C 246.927 194.053, 245.214 193.854, 242.992 196.239 M 172.697 202.636 C 172.314 203.020, 172 205.058, 172 207.167 C 172 211.543, 173.568 212.154, 176.377 208.872 C 178.152 206.799, 178.137 206.683, 175.797 204.342 C 174.475 203.021, 173.080 202.253, 172.697 202.636 M 186.644 204.103 C 184.900 206.140, 184.915 206.281, 187.122 208.630 L 189.400 211.055 191.800 208.655 C 194.137 206.317, 194.152 206.201, 192.377 204.128 C 190.091 201.457, 188.914 201.452, 186.644 204.103 M 202.283 204.374 L 200.066 206.713 202.439 208.942 C 204.340 210.728, 205.204 210.961, 206.788 210.113 C 209.805 208.499, 210.089 206.432, 207.613 204.106 C 204.862 201.522, 204.992 201.515, 202.283 204.374 M 218.601 204.486 C 217.063 206.833, 217.091 207.091, 219.100 209.100 L 221.227 211.227 223.789 208.666 L 226.350 206.104 223.925 204.085 C 220.812 201.493, 220.549 201.513, 218.601 204.486 M 234.750 204.083 C 232.526 206.519, 232.553 207.285, 234.935 209.441 C 236.779 211.110, 236.988 211.106, 239.403 209.346 C 242.545 207.057, 242.641 205.563, 239.777 203.557 C 237.078 201.666, 236.944 201.680, 234.750 204.083 M 251.250 203.774 C 248.465 206.201, 248.440 207.076, 251.095 209.349 C 253.782 211.650, 254.195 211.143, 253.813 206.011 L 253.500 201.813 251.250 203.774 M 178.228 212.366 L 175.957 214.611 178.478 216.980 L 181 219.349 183.506 216.995 L 186.011 214.641 183.831 212.320 C 181.208 209.528, 181.099 209.529, 178.228 212.366 M 194.750 211.893 C 192.462 214.213, 192.577 215.147, 195.404 217.200 C 197.653 218.834, 197.835 218.805, 200.053 216.443 L 202.362 213.986 200.223 211.993 C 197.654 209.600, 197.023 209.588, 194.750 211.893 M 211.250 211.721 C 208.463 213.608, 208.406 215.153, 211.038 217.534 C 213.028 219.335, 213.134 219.320, 215.565 216.889 L 218.055 214.400 215.777 212.299 C 213.687 210.370, 213.316 210.322, 211.250 211.721 M 227.221 212.009 C 224.886 214.185, 225.178 216.490, 227.980 217.989 C 229.287 218.689, 230.261 218.352, 231.868 216.641 L 234.011 214.359 231.693 212.181 L 229.374 210.003 227.221 212.009 M 242.366 212.565 C 240.771 214.999, 240.786 215.230, 242.659 217.104 C 244.839 219.284, 246.933 218.938, 248.703 216.105 C 249.611 214.650, 249.540 213.788, 248.374 212.124 C 246.395 209.298, 244.411 209.444, 242.366 212.565 M 172 222.500 C 172 227.648, 172.707 228.005, 175.990 224.510 C 178.261 222.093, 178.276 221.962, 176.509 220.010 C 173.476 216.658, 172 217.473, 172 222.500 M 187.081 219.930 C 184.428 222.231, 184.456 223.505, 187.201 225.428 C 189.228 226.848, 189.580 226.804, 191.638 224.870 C 193.485 223.136, 193.671 222.446, 192.708 220.904 C 191.001 218.171, 189.424 217.898, 187.081 219.930 M 202.491 220.010 C 200.724 221.963, 200.740 222.094, 203.035 224.538 L 205.400 227.055 207.889 224.565 C 210.320 222.134, 210.335 222.028, 208.534 220.038 C 206.214 217.475, 204.791 217.468, 202.491 220.010 M 218.520 220.163 L 215.878 222.241 218.113 224.621 C 220.773 227.452, 220.870 227.459, 223.752 225.055 C 226.220 222.996, 225.993 221.101, 223.062 219.271 C 221.501 218.296, 220.692 218.455, 218.520 220.163 M 234.380 220.543 C 232.794 222.964, 232.817 223.180, 234.862 225.086 C 236.939 227.021, 237.089 227.028, 239.473 225.293 C 242.488 223.099, 242.594 221.953, 239.989 219.722 C 237.285 217.407, 236.344 217.545, 234.380 220.543 M 250.655 219.829 C 249.745 220.835, 249 222.019, 249 222.461 C 249 223.211, 252.885 227, 253.653 227 C 253.844 227, 254 224.975, 254 222.500 C 254 217.618, 253.220 216.995, 250.655 219.829 M 178.762 227.874 L 176.025 230.642 178.893 232.763 L 181.761 234.883 184.081 232.414 L 186.400 229.945 183.950 227.526 L 181.500 225.106 178.762 227.874 M 211.085 227.600 L 208.670 230.125 211.135 232.590 L 213.600 235.055 216 232.500 L 218.400 229.945 215.950 227.510 L 213.500 225.075 211.085 227.600 M 243.125 227.367 C 241.144 229.476, 241.019 230.057, 242.154 231.875 C 244.101 234.993, 245.538 235.120, 248.094 232.400 L 250.400 229.945 247.900 227.445 L 245.400 224.945 243.125 227.367 M 194.750 227.893 C 192.489 230.186, 192.544 231.278, 195.038 233.534 C 197.031 235.338, 197.136 235.318, 199.788 232.647 L 202.500 229.916 200 227.980 C 196.997 225.655, 196.958 225.654, 194.750 227.893 M 226.655 227.829 C 224.529 230.178, 224.569 231.300, 226.855 233.369 C 228.985 235.296, 231.004 234.824, 232.777 231.986 C 233.814 230.325, 233.692 229.692, 232.005 228.005 C 229.533 225.533, 228.756 225.507, 226.655 227.829 M 172.667 234.667 C 171.704 235.629, 171.845 243, 172.826 243 C 173.280 243, 174.629 241.959, 175.824 240.687 L 177.997 238.374 175.960 236.187 C 173.698 233.760, 173.613 233.720, 172.667 234.667 M 186.491 236.010 C 184.724 237.963, 184.740 238.094, 187.035 240.538 L 189.400 243.055 191.889 240.565 C 194.320 238.134, 194.335 238.028, 192.534 236.038 C 190.214 233.475, 188.791 233.468, 186.491 236.010 M 202.523 235.974 C 200.850 237.823, 200.842 238.109, 202.391 240.474 C 204.441 243.602, 205.073 243.615, 207.916 240.590 L 210.180 238.180 208.090 236.090 C 205.502 233.502, 204.774 233.487, 202.523 235.974 M 218.491 236.010 C 216.725 237.962, 216.738 238.093, 218.950 240.447 C 220.846 242.465, 221.544 242.677, 223.096 241.708 C 225.828 240.002, 226.273 237.959, 224.369 235.855 C 222.214 233.474, 220.751 233.512, 218.491 236.010 M 234.169 236.320 L 231.989 238.641 234.522 241.020 L 237.055 243.400 239.777 240.641 L 242.500 237.883 240.139 235.941 C 237.151 233.484, 236.813 233.506, 234.169 236.320 M 250.466 236.038 C 248.663 238.030, 248.682 238.136, 251.311 240.765 L 254 243.455 254 238.727 C 254 233.534, 253.249 232.962, 250.466 236.038 M 178.165 244.324 C 176.964 245.602, 176.239 246.906, 176.554 247.221 C 177.081 247.748, 185.075 247.081, 185.833 246.446 C 186.338 246.023, 182.121 242, 181.174 242 C 180.720 242, 179.366 243.046, 178.165 244.324 M 194.655 243.829 C 192.180 246.564, 192.571 247, 197.500 247 C 202.382 247, 203.005 246.220, 200.171 243.655 C 197.828 241.534, 196.700 241.570, 194.655 243.829 M 210.655 243.829 C 208.178 246.566, 208.571 247, 213.523 247 L 218.046 247 216.408 244.500 C 214.462 241.530, 212.900 241.348, 210.655 243.829 M 226.557 243.937 C 224.371 246.353, 225.290 248.005, 228.809 247.985 C 233.283 247.959, 234.517 246.626, 232.378 244.129 C 230.122 241.494, 228.807 241.450, 226.557 243.937 M 242.655 243.829 C 239.336 247.496, 241.072 248.556, 248.333 247.296 L 251.165 246.805 248.908 244.402 C 246.203 241.522, 244.854 241.399, 242.655 243.829 M 147.713 255.621 C 147.321 256.013, 146.993 258.171, 146.985 260.417 C 146.971 264.360, 146.927 264.414, 145.710 262 C 145.017 260.625, 143.449 259.356, 142.225 259.180 C 140.093 258.874, 139.994 259.197, 139.850 266.930 C 139.767 271.369, 139.655 275.563, 139.600 276.250 C 139.545 276.938, 140.692 277.638, 142.148 277.807 C 144.285 278.054, 144.978 277.572, 145.740 275.307 C 146.436 273.237, 146.849 277.227, 147.312 290.500 C 147.681 301.088, 148.525 310.559, 149.360 313.500 C 155.903 336.545, 171.619 352.850, 194.263 360.084 C 197.561 361.138, 201.102 362, 202.130 362 C 203.883 362, 204 363.061, 204 379 L 204 396 197.154 396 C 186.819 396, 180.448 400.207, 177.957 408.675 C 175.678 416.420, 173.639 416, 213.469 416 L 249 416 248.990 412.750 C 248.973 407.553, 245.049 400.872, 240.500 398.297 C 237.374 396.527, 234.917 396.029, 229.250 396.016 L 222 396 222 379 C 222 363.061, 222.117 362, 223.870 362 C 229.191 362, 246.449 354.764, 251.500 350.416 C 253.150 348.995, 255.910 346.627, 257.634 345.153 C 262.154 341.288, 268.739 332.683, 271.724 326.742 C 277.214 315.812, 278.210 310.751, 278.733 291.157 C 279.131 276.266, 279.443 273.255, 280.391 275.157 C 281.144 276.667, 282.438 277.500, 284.030 277.500 C 286.474 277.500, 286.500 277.405, 286.500 268.500 C 286.500 259.940, 286.391 259.484, 284.260 259.182 C 282.613 258.948, 281.686 259.603, 280.760 261.656 L 279.500 264.448 279 259.974 L 278.500 255.500 273.500 255.500 L 268.500 255.500 268.193 259.750 L 267.885 264 263.443 264 C 259.667 264, 259 264.300, 259 266 C 259 267.971, 258.333 268, 213 268 C 167.667 268, 167 267.971, 167 266 C 167 264.300, 166.333 264, 162.557 264 L 158.115 264 157.807 259.750 L 157.500 255.500 152.963 255.204 C 150.467 255.041, 148.105 255.229, 147.713 255.621 M 158 288.951 C 158 307.291, 159.064 312.807, 164.729 323.851 C 169.788 333.712, 178.216 341.595, 189.579 347.095 C 220.062 361.850, 256.071 345.675, 266.091 312.728 C 267.624 307.685, 267.986 303.313, 267.992 289.750 L 268 273 264.113 273 L 260.227 273 259.803 290.250 C 259.392 306.972, 259.280 307.732, 256.171 315.069 C 246.888 336.978, 223.484 348.444, 200.856 342.170 C 192.066 339.732, 185.584 335.859, 179.374 329.333 C 169.336 318.784, 166 307.894, 166 285.668 L 166 273 162 273 L 158 273 158 288.951" stroke="none" fill="#1c345e" fill-rule="evenodd"/></svg>